<svg
	xmlns="http://www.w3.org/2000/svg"
	width="225pt"
	height="225pt"
	viewBox="0 0 225 225"
	version="1.1"
>
	<g id="#000000ff">
		<path
			fill="#F2A742"
			opacity="1.00"
			d=" M 14.39 35.44 C 25.76 21.20 43.75 12.40 62.01 12.56 C 76.63 12.29 91.10 17.48 102.67 26.33 C 106.35 29.03 109.34 32.51 112.90 35.35 C 120.25 27.91 128.60 21.32 138.40 17.43 C 156.42 9.92 178.04 11.00 194.82 21.17 C 209.89 30.15 220.87 45.76 223.89 63.07 C 225.52 75.43 224.52 88.23 219.80 99.85 C 210.54 123.50 193.56 143.07 175.76 160.76 C 156.46 179.16 136.55 196.91 116.76 214.78 C 115.52 215.85 114.22 216.85 112.93 217.87 C 111.97 217.24 111.00 216.62 110.12 215.89 C 97.50 204.52 84.79 193.24 72.36 181.66 C 55.87 166.84 39.46 151.71 25.86 134.13 C 14.75 119.66 5.02 103.40 1.72 85.23 C -1.68 67.85 3.20 49.12 14.39 35.44 M 55.54 35.53 C 38.11 38.28 23.79 54.24 23.22 71.92 C 22.45 85.44 28.70 98.10 35.71 109.25 C 52.93 135.82 77.81 155.90 100.73 177.27 C 104.89 180.70 108.41 184.91 112.94 187.87 C 118.99 182.98 124.49 177.45 130.33 172.31 C 143.72 159.71 157.89 147.89 170.21 134.20 C 181.07 122.35 191.23 109.51 197.72 94.70 C 201.50 86.12 203.54 76.51 201.83 67.17 C 199.45 52.86 188.31 40.56 174.40 36.54 C 160.04 32.23 143.82 36.84 133.07 47.08 C 126.09 53.85 120.02 61.50 112.91 68.12 C 104.93 61.13 98.56 52.43 90.62 45.36 C 81.10 37.21 67.93 33.37 55.54 35.53 Z"
		/>
	</g>
</svg>